<?xml version="1.0" ?><svg id="icon" style="enable-background:new 0 0 512 512;" version="1.1" viewBox="0 0 512 512" xml:space="preserve" xmlns="http://www.w3.org/2000/svg" xmlns:xlink="http://www.w3.org/1999/xlink"><style type="text/css">
	.st0{fill:#1D1D1B;}
</style><g><path class="st0" d="M335.2279053,255.2850342c0-43.68396-35.5424805-79.2265625-79.2265625-79.2265625   c-43.6867676,0-79.229248,35.5426025-79.229248,79.2265625s35.5424805,79.2265625,79.229248,79.2265625   C299.6854248,334.5115967,335.2279053,298.9689941,335.2279053,255.2850342z M256.0013428,327.6605225   c-39.9099121,0-72.3781738-32.4682617-72.3781738-72.3754883s32.4682617-72.3754883,72.3781738-72.3754883   c39.9074707,0,72.3757324,32.4682617,72.3757324,72.3754883S295.9088135,327.6605225,256.0013428,327.6605225z"/><path class="st0" d="M462.5950928,252.5731201h-22.5717773C438.5828857,153.4732666,358.4366455,73.09021,259.4268799,71.2723389   V49.4049072c0-1.8925781-1.532959-3.4255371-3.4255371-3.4255371c-1.892334,0-3.4255371,1.532959-3.4255371,3.4255371v21.8674316   c-99.0124512,1.817627-179.1586914,82.2009277-180.5991211,181.3007813H49.4049072   c-1.8925781,0-3.4255371,1.532959-3.4255371,3.4255371c0,1.8924561,1.532959,3.425415,3.4255371,3.425415H71.994751   c2.184082,98.444458,82.0437012,178.0646973,180.5810547,179.8737793v23.2972412   c0,1.8925781,1.5332031,3.4255371,3.4255371,3.4255371c1.8925781,0,3.4255371-1.532959,3.4255371-3.4255371v-23.2972412   c98.534668-1.8092041,178.3942871-81.4294434,180.5783691-179.8737793h22.5898438   c1.8925781,0,3.4255371-1.532959,3.4255371-3.425415C466.0206299,254.1060791,464.4876709,252.5731201,462.5950928,252.5731201z    M252.5758057,78.1231689v47.2229004c-69.1948242,1.7990723-125.0983887,57.9414063-126.5244141,127.2270508H78.8277588   C80.2667236,157.2498779,157.3399658,79.9393311,252.5758057,78.1231689z M252.5758057,432.4468994   c-94.7607422-1.8070068-171.548584-78.3549805-173.7299805-173.0228271h47.2438965   c2.1584473,68.6278076,57.7670898,124.0133057,126.486084,125.7999268V432.4468994z M256.0013428,362.7459717   c-1.892334,0-3.4255371,1.532959-3.4255371,3.4255371v12.1970215   c-64.9418945-1.782959-117.4770508-54.0941162-119.6308594-118.944458h12.8835449   c1.8925781,0,3.4255371-1.532959,3.4255371-3.425415c0-1.8925781-1.532959-3.4255371-3.4255371-3.4255371h-12.9260254   c1.4233398-65.5087891,54.2556152-118.5754395,119.6733398-120.371582v13.6269531   c0,1.8924561,1.5332031,3.4255371,3.4255371,3.4255371c1.8925781,0,3.4255371-1.5330811,3.4255371-3.4255371v-13.6269531   c65.4155273,1.7962646,118.2475586,54.862793,119.6708984,120.371582h-12.9262695   c-1.8925781,0-3.425293,1.532959-3.425293,3.4255371c0,1.8924561,1.5327148,3.425415,3.425293,3.425415h12.8835449   c-2.1535645,64.8502197-54.6887207,117.1612549-119.6281738,118.944458v-12.1970215   C259.4268799,364.2789307,257.8939209,362.7459717,256.0013428,362.7459717z M259.4268799,432.4468994V385.223999   c68.7192383-1.7868652,124.3251953-57.1721191,126.4833984-125.7999268h47.2438965   C430.9727783,354.0917969,354.1849365,430.6398926,259.4268799,432.4468994z M385.9486084,252.5731201   c-1.4260254-69.2856445-57.3266602-125.4278564-126.5217285-127.2270508V78.1231689   c95.2331543,1.8161621,172.3063965,79.126709,173.7456055,174.4499512H385.9486084z"/><path class="st0" d="M257.3531494,252.7625732h-2.7175293c-14.565918,0-26.4143066-7.8933105-26.4143066-17.5957031   c0-9.0744629,10.9516602-16.8010254,24.3461914-17.5308838v10.9671631c0,1.8924561,1.532959,3.425415,3.4255371,3.425415   s3.4255371-1.532959,3.4255371-3.425415v-10.7349854c12.2954102,1.5030518,21.6455078,8.6842041,21.6455078,17.2987061   c0,1.8925781,1.532959,3.4255371,3.425293,3.4255371c1.8925781,0,3.4255371-1.532959,3.4255371-3.4255371   c0-12.2857666-12.4040527-22.4787598-28.4963379-24.1877441v-7.0065918c0-1.8925781-1.532959-3.4255371-3.4255371-3.4255371   s-3.4255371,1.532959-3.4255371,3.4255371v6.8024902c-17.3823242,0.7879639-31.1972656,11.4238281-31.1972656,24.3918457   c0,13.4790039,14.9228516,24.4467773,33.2653809,24.4467773h2.7175293c14.5744629,0,26.4284668,7.890625,26.4284668,17.5872803   c0,9.2416992-10.751709,16.8352051-24.3630371,17.5396729v-16.3244629c0-1.8925781-1.532959-3.4255371-3.4255371-3.4255371   s-3.4255371,1.532959-3.4255371,3.4255371v16.088623c-12.2939453-1.5042725-21.6425781-8.6875-21.6425781-17.303833   c0-1.8924561-1.532959-3.4255371-3.4255371-3.4255371s-3.4255371,1.5330811-3.4255371,3.4255371   c0,12.2877197,12.402832,22.4827881,28.4936523,24.1929932v5.2036133c0,1.8925781,1.532959,3.4255371,3.4255371,3.4255371   s3.4255371-1.532959,3.4255371-3.4255371v-4.9990234c17.3916016-0.7867432,31.2138672-11.4259033,31.2138672-24.397583   C290.6324463,263.7247314,275.7042236,252.7625732,257.3531494,252.7625732z"/></g></svg>